<svg width="512" height="512" viewBox="0 0 512 512" fill="none" xmlns="http://www.w3.org/2000/svg">
<rect width="512" height="512" fill="#FFDE59"/>
<path d="M256.5 423L268.542 405.409C334.773 307.436 368 239.077 368 200.333C368 138.877 318.048 89 256.5 89C194.952 89 145 138.877 145 200.333C145 241.304 182.241 315.452 256.5 423Z" fill="#1A1A1A"/>
<path d="M256.5 282L247.003 273.296C213.27 242.502 191 222.126 191 197.267C191 176.892 206.851 161 227.025 161C238.422 161 249.361 166.341 256.5 174.716C263.64 166.341 274.578 161 285.975 161C306.149 161 322 176.892 322 197.267C322 222.126 299.73 242.502 265.998 273.296L256.5 282Z" fill="#FFDE59"/>
</svg>
