<svg width="512" height="512" viewBox="0 0 512 512" fill="none" xmlns="http://www.w3.org/2000/svg">
<rect width="512" height="512" fill="#FFDE59"/>
<path d="M256.5 455L270.81 434.091C349.515 317.638 389 236.385 389 190.333C389 117.285 329.64 58 256.5 58C183.36 58 124 117.285 124 190.333C124 239.032 168.255 327.166 256.5 455Z" fill="black"/>
<path d="M255.511 255.743L244.562 245.763C205.674 210.453 180 187.09 180 158.585C180 135.222 198.274 117 221.531 117C234.67 117 247.28 123.124 255.511 132.727C263.741 123.124 276.352 117 289.491 117C312.748 117 331.022 135.222 331.022 158.585C331.022 187.09 305.348 210.453 266.46 245.763L255.511 255.743Z" fill="#FFDE59"/>
</svg>
